<?xml version="1.0" encoding="utf-8"?>
<!-- Generator: Adobe Illustrator 16.0.0, SVG Export Plug-In . SVG Version: 6.00 Build 0)  -->
<!DOCTYPE svg PUBLIC "-//W3C//DTD SVG 1.1//EN" "http://www.w3.org/Graphics/SVG/1.1/DTD/svg11.dtd">
<svg version="1.1" id="Layer_1" xmlns="http://www.w3.org/2000/svg" xmlns:xlink="http://www.w3.org/1999/xlink" x="0px" y="0px"
	 width="105px" height="105px" viewBox="0 0 105 105" enable-background="new 0 0 105 105" xml:space="preserve">
<g id="Layer_1_1_">
	<path fill-opacity="0" stroke="#555555" stroke-width="4" stroke-miterlimit="10" d="M102.5,99.221
		c0,1.812-1.469,3.279-3.279,3.279H5.779c-1.81,0-3.279-1.469-3.279-3.279V5.779C2.5,3.969,3.969,2.5,5.779,2.5h93.442
		c1.812,0,3.279,1.469,3.279,3.279V99.221z"/>
	<path fill-opacity="0" stroke="#555555" stroke-width="4" stroke-miterlimit="10" d="M3.32,13.975h100"/>
	<path fill-opacity="0" stroke="#555555" stroke-width="4" stroke-miterlimit="10" d="M3.32,94.303h100"/>
	<g>
		<path fill="#555555" d="M10.697,8.132c0,0.736-0.596,1.331-1.332,1.331l0,0c-0.736,0-1.331-0.597-1.331-1.331l0,0
			c0-0.736,0.595-1.331,1.331-1.331l0,0C10.101,6.801,10.697,7.398,10.697,8.132L10.697,8.132z"/>
		<path fill-opacity="0" stroke="#555555" stroke-width="2" d="M10.697,8.132c0,0.736-0.596,1.331-1.332,1.331l0,0
			c-0.736,0-1.331-0.597-1.331-1.331l0,0c0-0.736,0.595-1.331,1.331-1.331l0,0C10.101,6.801,10.697,7.398,10.697,8.132L10.697,8.132
			z"/>
	</g>
	<g>
		<path fill="#555555" d="M17.254,8.132c0,0.736-0.595,1.331-1.331,1.331l0,0c-0.736,0-1.331-0.597-1.331-1.331l0,0
			c0-0.736,0.595-1.331,1.331-1.331l0,0C16.659,6.801,17.254,7.398,17.254,8.132L17.254,8.132z"/>
		<path fill-opacity="0" stroke="#555555" stroke-width="2" d="M17.254,8.132c0,0.736-0.595,1.331-1.331,1.331l0,0
			c-0.736,0-1.331-0.597-1.331-1.331l0,0c0-0.736,0.595-1.331,1.331-1.331l0,0C16.659,6.801,17.254,7.398,17.254,8.132L17.254,8.132
			z"/>
	</g>
	<g>
		<path fill="#555555" d="M23.811,8.132c0,0.736-0.595,1.331-1.331,1.331l0,0c-0.736,0-1.331-0.597-1.331-1.331l0,0
			c0-0.736,0.595-1.331,1.331-1.331l0,0C23.216,6.801,23.811,7.398,23.811,8.132L23.811,8.132z"/>
		<path fill-opacity="0" stroke="#555555" stroke-width="2" d="M23.811,8.132c0,0.736-0.595,1.331-1.331,1.331l0,0
			c-0.736,0-1.331-0.597-1.331-1.331l0,0c0-0.736,0.595-1.331,1.331-1.331l0,0C23.216,6.801,23.811,7.398,23.811,8.132L23.811,8.132
			z"/>
	</g>
	<path fill-opacity="0" stroke="#33CC66" stroke-width="4" stroke-miterlimit="10" d="M14.592,24.014l58.52-0.015"/>
	<path fill-opacity="0" stroke="#33CC66" stroke-width="4" stroke-miterlimit="10" d="M19.51,28.932H44.1"/>
	<path fill-opacity="0" stroke="#33CC66" stroke-width="4" stroke-miterlimit="10" d="M23.811,33.85H53.32"/>
	<path fill-opacity="0" stroke="#33CC66" stroke-width="4" stroke-miterlimit="10" d="M19.51,39.031h22.951"/>
	<path fill-opacity="0" stroke="#33CC66" stroke-width="4" stroke-miterlimit="10" d="M14.592,43.999h41.965"/>
	<path fill-opacity="0" stroke="#33CC66" stroke-width="4" stroke-miterlimit="10" d="M14.592,55.162h22.951"/>
	<path fill-opacity="0" stroke="#33CC66" stroke-width="4" stroke-miterlimit="10" d="M24.428,64.998h18.033"/>
	<path fill-opacity="0" stroke="#33CC66" stroke-width="4" stroke-miterlimit="10" d="M24.428,75.098h22.951"/>
	<path fill-opacity="0" stroke="#33CC66" stroke-width="4" stroke-miterlimit="10" d="M29.346,70.131h19.672"/>
	<path fill-opacity="0" stroke="#33CC66" stroke-width="4" stroke-miterlimit="10" d="M19.51,79.752l43.812,0.036"/>
	<path fill-opacity="0" stroke="#33CC66" stroke-width="4" stroke-miterlimit="10" d="M19.51,60.08h31.147"/>
	<path fill-opacity="0" stroke="#33CC66" stroke-width="4" stroke-miterlimit="10" d="M14.592,84.67h22.951"/>
	<path fill-opacity="0" stroke="#33CC66" stroke-width="4" stroke-miterlimit="10" d="M19.51,49.699l34.844-0.039"/>
</g>
</svg>
